<svg width="117" height="24" viewBox="0 0 117 24" fill="none" xmlns="http://www.w3.org/2000/svg">
<path d="M8.67898 23.5H0.428977V0.227272H8.74716C11.0881 0.227272 13.1032 0.693181 14.7926 1.625C16.482 2.54924 17.7813 3.87879 18.6903 5.61364C19.607 7.34848 20.0653 9.42424 20.0653 11.8409C20.0653 14.2652 19.607 16.3485 18.6903 18.0909C17.7813 19.8333 16.4744 21.1705 14.7699 22.1023C13.0729 23.0341 11.0426 23.5 8.67898 23.5ZM5.34943 19.2841H8.47443C9.92898 19.2841 11.1525 19.0265 12.1449 18.5114C13.1449 17.9886 13.8949 17.1818 14.3949 16.0909C14.9025 14.9924 15.1562 13.5758 15.1562 11.8409C15.1562 10.1212 14.9025 8.71591 14.3949 7.625C13.8949 6.53409 13.1487 5.73106 12.1562 5.21591C11.1638 4.70076 9.94034 4.44318 8.4858 4.44318H5.34943V19.2841ZM28.5966 23.8295C27.483 23.8295 26.4905 23.6364 25.6193 23.25C24.7481 22.8561 24.0587 22.2765 23.5511 21.5114C23.0511 20.7386 22.8011 19.7765 22.8011 18.625C22.8011 17.6553 22.9792 16.8409 23.3352 16.1818C23.6913 15.5227 24.1761 14.9924 24.7898 14.5909C25.4034 14.1894 26.1004 13.8864 26.8807 13.6818C27.6686 13.4773 28.4943 13.3333 29.358 13.25C30.3731 13.1439 31.1913 13.0455 31.8125 12.9545C32.4337 12.8561 32.8845 12.7121 33.1648 12.5227C33.4451 12.3333 33.5852 12.053 33.5852 11.6818V11.6136C33.5852 10.8939 33.358 10.3371 32.9034 9.94318C32.4564 9.54924 31.8201 9.35227 30.9943 9.35227C30.1231 9.35227 29.4299 9.54545 28.9148 9.93182C28.3996 10.3106 28.0587 10.7879 27.892 11.3636L23.4148 11C23.642 9.93939 24.089 9.02273 24.7557 8.25C25.4223 7.4697 26.2822 6.87121 27.3352 6.45454C28.3958 6.0303 29.6231 5.81818 31.017 5.81818C31.9867 5.81818 32.9148 5.93182 33.8011 6.15909C34.6951 6.38636 35.4867 6.73864 36.1761 7.21591C36.8731 7.69318 37.4223 8.30682 37.8239 9.05682C38.2254 9.79924 38.4261 10.6894 38.4261 11.7273V23.5H33.8352V21.0795H33.6989C33.4186 21.625 33.0436 22.1061 32.5739 22.5227C32.1042 22.9318 31.5398 23.2538 30.8807 23.4886C30.2216 23.7159 29.4602 23.8295 28.5966 23.8295ZM29.983 20.4886C30.6951 20.4886 31.3239 20.3485 31.8693 20.0682C32.4148 19.7803 32.8428 19.3939 33.1534 18.9091C33.464 18.4242 33.6193 17.875 33.6193 17.2614V15.4091C33.4678 15.5076 33.2595 15.5985 32.9943 15.6818C32.7367 15.7576 32.4451 15.8295 32.1193 15.8977C31.7936 15.9583 31.4678 16.0152 31.142 16.0682C30.8163 16.1136 30.5208 16.1553 30.2557 16.1932C29.6875 16.2765 29.1913 16.4091 28.767 16.5909C28.3428 16.7727 28.0133 17.0189 27.7784 17.3295C27.5436 17.6326 27.4261 18.0114 27.4261 18.4659C27.4261 19.125 27.6648 19.6288 28.142 19.9773C28.6269 20.3182 29.2405 20.4886 29.983 20.4886ZM53.375 16.0682V6.04545H58.2159V23.5H53.5682V20.3295H53.3864C52.9924 21.3523 52.3371 22.1742 51.4205 22.7955C50.5114 23.4167 49.4015 23.7273 48.0909 23.7273C46.9242 23.7273 45.8977 23.4621 45.0114 22.9318C44.125 22.4015 43.4318 21.6477 42.9318 20.6705C42.4394 19.6932 42.1894 18.5227 42.1818 17.1591V6.04545H47.0227V16.2955C47.0303 17.3258 47.3068 18.1402 47.8523 18.7386C48.3977 19.3371 49.1288 19.6364 50.0455 19.6364C50.6288 19.6364 51.1742 19.5038 51.6818 19.2386C52.1894 18.9659 52.5985 18.5644 52.9091 18.0341C53.2273 17.5038 53.3826 16.8485 53.375 16.0682ZM66.929 13.4091V23.5H62.0881V6.04545H66.7017V9.125H66.9062C67.2926 8.10985 67.9403 7.30682 68.8494 6.71591C69.7585 6.11742 70.8608 5.81818 72.1562 5.81818C73.3684 5.81818 74.4252 6.08333 75.3267 6.61364C76.2282 7.14394 76.929 7.90151 77.429 8.88636C77.929 9.86364 78.179 11.0303 78.179 12.3864V23.5H73.3381V13.25C73.3456 12.1818 73.0729 11.3485 72.5199 10.75C71.9669 10.1439 71.2055 9.84091 70.2358 9.84091C69.5843 9.84091 69.0085 9.98106 68.5085 10.2614C68.0161 10.5417 67.6297 10.9508 67.3494 11.4886C67.0767 12.0189 66.9366 12.6591 66.929 13.4091ZM86.3807 18.4773L86.392 12.6705H87.0966L92.6875 6.04545H98.2443L90.733 14.8182H89.5852L86.3807 18.4773ZM81.9943 23.5V0.227272H86.8352V23.5H81.9943ZM92.9034 23.5L87.767 15.8977L90.9943 12.4773L98.5739 23.5H92.9034ZM111.812 16.0682V6.04545H116.653V23.5H112.006V20.3295H111.824C111.43 21.3523 110.775 22.1742 109.858 22.7955C108.949 23.4167 107.839 23.7273 106.528 23.7273C105.362 23.7273 104.335 23.4621 103.449 22.9318C102.563 22.4015 101.869 21.6477 101.369 20.6705C100.877 19.6932 100.627 18.5227 100.619 17.1591V6.04545H105.46V16.2955C105.468 17.3258 105.744 18.1402 106.29 18.7386C106.835 19.3371 107.566 19.6364 108.483 19.6364C109.066 19.6364 109.612 19.5038 110.119 19.2386C110.627 18.9659 111.036 18.5644 111.347 18.0341C111.665 17.5038 111.82 16.8485 111.812 16.0682Z" fill="white"/>
</svg>
